<?xml version="1.0" encoding="UTF-8"?>
<svg version="1.1" xmlns="http://www.w3.org/2000/svg" width="384" height="252">
<path d="M0 0 C126.72 0 253.44 0 384 0 C384 83.16 384 166.32 384 252 C257.28 252 130.56 252 0 252 C0 168.84 0 85.68 0 0 Z " fill="#FEFEFE" transform="translate(0,0)"/>
<path d="M0 0 C7.94536098 6.81371287 14.90282305 15.42608735 16.42358398 26.09008789 C17.11708445 36.60948966 16.41181115 45.5642103 11.10546875 54.859375 C10.78852051 55.45250488 10.47157227 56.04563477 10.14501953 56.65673828 C1.20605201 73.27453598 -12.11182709 85.24611473 -27.25 96.17578125 C-37.45970397 103.58053409 -47.9966534 112.42104685 -50.36328125 125.4375 C-50.60490058 127.5718041 -50.75842835 129.71575426 -50.89453125 131.859375 C-55.90350814 127.11698232 -57.12053928 122.35523784 -57.45703125 115.609375 C-57.09009263 103.71784563 -50.05277296 96.23774817 -41.8203125 88.4765625 C-38.63911057 85.63089455 -35.49124634 83.1481937 -31.89453125 80.859375 C-32.838125 80.82199219 -33.78171875 80.78460938 -34.75390625 80.74609375 C-53.21631901 79.80072924 -69.56102655 75.09050838 -82.3203125 61.0625 C-91.20337641 50.52820086 -92.82628153 39.17395141 -91.89453125 25.859375 C-89.65008836 14.73723127 -82.51800158 4.96323371 -73.3671875 -1.58203125 C-50.35901053 -16.08481578 -22.35587483 -16.53308962 0 0 Z " fill="#0B9E4A" transform="translate(156.89453125,47.140625)"/>
<path d="M0 0 C6.83966471 4.41519819 12.40725781 10.29221921 14.625 18.25 C15.65097487 28.02241061 14.59488861 36.04470013 8.56640625 43.94921875 C1.13020774 52.53909393 -6.05861958 57.44323356 -17.55712891 58.43896484 C-30.74408513 59.19196152 -41.77271828 58.11268322 -52.296875 49.38671875 C-59.56773844 41.91084976 -62.70925614 34.45552272 -62.76000977 24.15625 C-62.58057175 16.07086995 -59.58106557 10.40913292 -54.25 4.5 C-38.72273507 -9.8720636 -17.9158161 -9.89017902 0 0 Z " fill="#D62721" transform="translate(142.375,54.75)"/>
<path d="M0 0 C1.29114967 -0.0131424 1.29114967 -0.0131424 2.60838318 -0.02655029 C5.44712069 -0.04851546 8.28429417 -0.03400209 11.12304688 -0.01708984 C13.09932758 -0.02045881 15.07560626 -0.02531211 17.05187988 -0.03158569 C21.19120027 -0.03895311 25.32998072 -0.0282556 29.46923828 -0.00488281 C34.77250394 0.02360475 40.07450444 0.0072001 45.37772369 -0.02274513 C49.45788082 -0.04082155 53.53773847 -0.03505847 57.61790466 -0.02210617 C59.57311656 -0.01877312 61.52835573 -0.02285569 63.48353577 -0.03450394 C66.21761988 -0.04721831 68.94966161 -0.02782823 71.68359375 0 C72.48997787 -0.01012115 73.296362 -0.02024231 74.12718201 -0.03067017 C78.17243107 0.04552744 80.1095776 0.46650021 83.34143066 2.97817993 C87.21942847 8.15201874 86.07699543 14.53257133 85.34179688 20.64697266 C82.02870536 33.73368414 72.64928595 45.78421925 64.52929688 56.33447266 C48.70749686 76.9514595 35.99252767 99.23527994 34.34179688 125.64697266 C29.39179688 125.64697266 24.44179687 125.64697266 19.34179688 125.64697266 C17.78899467 94.97912902 35.31902881 68.65487302 52.99804688 45.13134766 C56.0869315 41.01401288 59.07580218 36.84300776 61.96679688 32.58447266 C62.35625488 32.02590576 62.74571289 31.46733887 63.14697266 30.8918457 C65.39133645 27.54210062 67.00072809 24.18113909 68.47216797 20.42260742 C69.00080948 19.07900902 69.00080948 19.07900902 69.54013062 17.70826721 C69.80468048 17.02804001 70.06923035 16.34781281 70.34179688 15.64697266 C69.34621262 15.65363449 68.35062836 15.66029633 67.32487488 15.66716003 C57.95166038 15.72792196 48.57848574 15.77292159 39.20511913 15.80240917 C34.3859303 15.81807858 29.5669002 15.83934007 24.74780273 15.87329102 C20.09884896 15.90583907 15.45004805 15.92381606 10.80098915 15.93160439 C9.0255219 15.9371561 7.25006321 15.94799701 5.47466087 15.96416283 C2.99162965 15.98587682 0.50923362 15.98894215 -1.97387695 15.98754883 C-2.71115021 15.99833466 -3.44842346 16.00912048 -4.20803833 16.02023315 C-9.1560112 15.99010364 -9.1560112 15.99010364 -11.57597351 14.33662415 C-13.44685205 11.41567959 -13.65820312 9.0805877 -13.65820312 5.64697266 C-9.81694741 0.37957864 -6.15832198 -0.07729484 0 0 Z " fill="#0B1A1E" transform="translate(185.658203125,43.35302734375)"/>
<path d="M0 0 C0.74507812 0.01353516 1.49015625 0.02707031 2.2578125 0.04101562 C4.08885416 0.07622796 5.91952169 0.13003149 7.75 0.1875 C8.40021227 31.93944554 8.8515098 63.67864364 8.8125 95.4375 C8.81121597 96.49047209 8.81121597 96.49047209 8.80990601 97.56471634 C8.79870037 106.10567182 8.77805537 114.64658329 8.75 123.1875 C3.8 123.1875 -1.15 123.1875 -6.25 123.1875 C-7.170113 88.84966606 -7.37772237 54.53670851 -7.25 20.1875 C-8.05824219 20.81398438 -8.86648437 21.44046875 -9.69921875 22.0859375 C-10.77841637 22.91175829 -11.85785635 23.73726242 -12.9375 24.5625 C-13.46794922 24.975 -13.99839844 25.3875 -14.54492188 25.8125 C-17.79508856 28.28501945 -20.36964526 29.63535811 -24.25 31.1875 C-26.89 27.5575 -29.53 23.9275 -32.25 20.1875 C-28.33260743 16.09650429 -24.13183717 12.5672772 -19.6875 9.0625 C-19.02814453 8.53785156 -18.36878906 8.01320313 -17.68945312 7.47265625 C-15.88153816 6.03722628 -14.07201607 4.60499041 -12.25 3.1875 C-11.68804932 2.63980957 -11.12609863 2.09211914 -10.54711914 1.52783203 C-7.14900695 -0.45491172 -3.81231764 -0.1313431 0 0 Z " fill="#1D0E10" transform="translate(49.25,45.8125)"/>
<path d="M0 0 C0.69777054 0.00942879 1.39554108 0.01885757 2.11445618 0.02857208 C3.82825667 0.05308899 5.54186315 0.09056834 7.25537109 0.13061523 C7.42808503 11.81803146 7.59446362 23.50553053 7.75537109 35.19311523 C7.76724834 36.05555344 7.7791256 36.91799164 7.79136276 37.80656433 C8.18103796 66.24948598 8.40059473 94.68465702 8.25537109 123.13061523 C3.30537109 123.13061523 -1.64462891 123.13061523 -6.74462891 123.13061523 C-7.56056352 99.57267333 -7.96793944 76.01184345 -8.30712891 52.44311523 C-8.31823071 51.67190212 -8.3293325 50.90068901 -8.34077072 50.1061058 C-8.47943103 40.44766389 -8.61392067 30.78916814 -8.74462891 21.13061523 C-9.64826172 21.85249023 -10.55189453 22.57436523 -11.48291016 23.31811523 C-12.67401747 24.25599501 -13.86544021 25.19347428 -15.05712891 26.13061523 C-15.65203125 26.60756836 -16.24693359 27.08452148 -16.85986328 27.57592773 C-21.40478516 31.13061523 -21.40478516 31.13061523 -24.74462891 31.13061523 C-26.60400391 29.30249023 -26.60400391 29.30249023 -28.49462891 26.88061523 C-29.12884766 26.09170898 -29.76306641 25.30280273 -30.41650391 24.48999023 C-31.74462891 22.13061523 -31.74462891 22.13061523 -31.53710938 20.17431641 C-30.56908754 17.67791751 -29.48304611 16.72864653 -27.39306641 15.07202148 C-26.70599609 14.52094727 -26.01892578 13.96987305 -25.31103516 13.40209961 C-24.22628906 12.55615234 -24.22628906 12.55615234 -23.11962891 11.69311523 C-22.41966797 11.13301758 -21.71970703 10.57291992 -20.99853516 9.99584961 C-19.59462135 8.87975116 -18.17742501 7.7801601 -16.74755859 6.69750977 C-14.76153105 5.20323773 -14.76153105 5.20323773 -13.18701172 3.60668945 C-9.11112383 -0.09025806 -5.32472017 -0.13658718 0 0 Z " fill="#1E0F11" transform="translate(309.74462890625,45.869384765625)"/>
<path d="M0 0 C2.31 0.33 4.62 0.66 7 1 C7.33 1.99 7.66 2.98 8 4 C9.98 3.67 11.96 3.34 14 3 C14.12375 3.969375 14.2475 4.93875 14.375 5.9375 C14.58125 6.948125 14.7875 7.95875 15 9 C17.46120841 10.23060421 19.25776866 10.2057723 22.0078125 10.31640625 C22.99394531 10.35830078 23.98007813 10.40019531 24.99609375 10.44335938 C26.54490234 10.50233398 26.54490234 10.50233398 28.125 10.5625 C29.68541016 10.62727539 29.68541016 10.62727539 31.27734375 10.69335938 C33.85142528 10.7996288 36.42560508 10.90166583 39 11 C39 14 39 14 38 17 C36.1875 17.73828125 36.1875 17.73828125 34 18.3125 C31.82743315 18.9668882 31.82743315 18.9668882 30 20 C28.85968434 23.07797583 28.85968434 23.07797583 29 26 C31.43717258 25.72965366 31.43717258 25.72965366 34 25 C34.66 24.01 35.32 23.02 36 22 C37.32 22.33 38.64 22.66 40 23 C40.50904657 24.87256417 41.00682455 26.74819341 41.5 28.625 C41.7784375 29.66914062 42.056875 30.71328125 42.34375 31.7890625 C42.99118596 34.95687418 43.1161292 37.77741467 43 41 C41.68 40.67 40.36 40.34 39 40 C38.67 40.99 38.34 41.98 38 43 C35.74206475 40.43416449 34.93566793 38.75124931 34.0625 35.375 C33.34367119 31.97147416 33.34367119 31.97147416 31.0625 30.5 C28.82334576 29.76397597 28.82334576 29.76397597 26 31 C24.79117904 33.00016466 24.79117904 33.00016466 24 35 C23.34 34.67 22.68 34.34 22 34 C21.01 34.66 20.02 35.32 19 36 C16.87890625 36.4140625 16.87890625 36.4140625 14.5625 36.625 C13.80066406 36.69976562 13.03882812 36.77453125 12.25390625 36.8515625 C10.17319114 36.988594 8.08522253 37 6 37 C5.87882812 36.31292969 5.75765625 35.62585938 5.6328125 34.91796875 C5.46523437 34.01691406 5.29765625 33.11585937 5.125 32.1875 C4.88136719 30.84751953 4.88136719 30.84751953 4.6328125 29.48046875 C4.08811551 26.77272154 4.08811551 26.77272154 2 24 C2.375 21.3125 2.375 21.3125 3 19 C2.195625 18.7525 1.39125 18.505 0.5625 18.25 C-2 17 -2 17 -2.8125 14.875 C-2.874375 14.25625 -2.93625 13.6375 -3 13 C-1.68 12.34 -0.36 11.68 1 11 C1 9.68 1 8.36 1 7 C-0.32 6.67 -1.64 6.34 -3 6 C-2.67 5.01 -2.34 4.02 -2 3 C-1.34 3 -0.68 3 0 3 C0 2.01 0 1.02 0 0 Z " fill="#F3F049" transform="translate(98,59)"/>
<path d="M0 0 C2.67315587 1.78210391 4.15913746 2.89971172 5.625 5.75 C6.22165151 9.67085277 5.77687534 11.45749935 3.9375 15 C0.95588299 18.54570671 -0.9328669 19.460562 -5.484375 20 C-10.94192761 20.29302296 -14.13480099 19.47310157 -18.375 15.75 C-20.72078248 12.55120571 -20.85175156 9.64347111 -20.375 5.75 C-15.47206818 -1.95460714 -8.26177351 -3.05991612 0 0 Z " fill="#496BB3" transform="translate(147.375,185.25)"/>
<path d="M0 0 C4.33125 -0.061875 4.33125 -0.061875 8.75 -0.125 C10.10496582 -0.15231201 10.10496582 -0.15231201 11.48730469 -0.18017578 C12.20821289 -0.1851709 12.92912109 -0.19016602 13.671875 -0.1953125 C14.4050293 -0.20578613 15.13818359 -0.21625977 15.89355469 -0.22705078 C18.3629103 0.03911759 19.92626926 0.63708351 22 2 C22.9012087 5.45463334 23 8.41911208 23 12 C23.2475 12.66 23.495 13.32 23.75 14 C24 16 24 16 22.625 18.109375 C18.65878028 20.96599754 14.99829248 20.43096359 10.25 20.25 C5.67125 20.12625 5.67125 20.12625 1 20 C0.67 13.4 0.34 6.8 0 0 Z " fill="#496BB3" transform="translate(297,184)"/>
<path d="M0 0 C3.073125 -0.061875 6.14625 -0.12375 9.3125 -0.1875 C10.27712158 -0.21481201 11.24174316 -0.24212402 12.2355957 -0.27026367 C13.38161255 -0.28150269 13.38161255 -0.28150269 14.55078125 -0.29296875 C15.72120972 -0.31653442 15.72120972 -0.31653442 16.9152832 -0.34057617 C19.54336701 0.08876882 20.39788346 0.91097487 22 3 C22.5 5.4375 22.5 5.4375 22 8 C19.5 10.3125 19.5 10.3125 17 12 C18.65 14.31 20.3 16.62 22 19 C19.3125 19.4375 19.3125 19.4375 16 19 C14.55587877 17.30868685 13.47026233 15.51445478 12.30078125 13.625 C10.97524436 11.64654066 10.97524436 11.64654066 7.6875 11.0625 C6.800625 11.041875 5.91375 11.02125 5 11 C5 13.64 5 16.28 5 19 C3.35 19 1.7 19 0 19 C0 12.73 0 6.46 0 0 Z " fill="#4366B1" transform="translate(158,185)"/>
<path d="M0 0 C2.31 0 4.62 0 7 0 C6.67 2.64 6.34 5.28 6 8 C10.29 8 14.58 8 19 8 C18.67 5.36 18.34 2.72 18 0 C20.31 0 22.62 0 25 0 C24.67 6.6 24.34 13.2 24 20 C22.35 20 20.7 20 19 20 C19 17.36 19 14.72 19 12 C14.71 12 10.42 12 6 12 C6 14.64 6 17.28 6 20 C4.35 20 2.7 20 1 20 C0.67 13.4 0.34 6.8 0 0 Z " fill="#4A6CB3" transform="translate(40,184)"/>
<path d="M0 0 C-0.66 1.65 -1.32 3.3 -2 5 C-2.33 4.34 -2.66 3.68 -3 3 C-5.28604222 2.49307602 -5.28604222 2.49307602 -7.9375 2.3125 C-9.28134766 2.18294922 -9.28134766 2.18294922 -10.65234375 2.05078125 C-13.02254105 1.81691573 -13.02254105 1.81691573 -15 3 C-15 3.66 -15 4.32 -15 5 C-13.75283203 5.16435547 -13.75283203 5.16435547 -12.48046875 5.33203125 C-10.85044922 5.56986328 -10.85044922 5.56986328 -9.1875 5.8125 C-8.10855469 5.96332031 -7.02960938 6.11414063 -5.91796875 6.26953125 C-2.9095129 7.02265206 -1.79821871 7.52897837 0 10 C0.5625 12.4375 0.5625 12.4375 0 15 C-3.31222768 18.14236985 -6.02434401 19.26140467 -10.5 19.375 C-14.26901907 19.20918867 -17.49113535 18.43953421 -21 17 C-20.67 15.35 -20.34 13.7 -20 12 C-19.44828125 12.32742187 -18.8965625 12.65484375 -18.328125 12.9921875 C-15.61219077 14.16787715 -13.69448241 14.20248638 -10.75 14.125 C-9.41195312 14.09792969 -9.41195312 14.09792969 -8.046875 14.0703125 C-7.37140625 14.04710937 -6.6959375 14.02390625 -6 14 C-5.67 13.01 -5.34 12.02 -5 11 C-5.81984375 10.97421875 -6.6396875 10.9484375 -7.484375 10.921875 C-8.56203125 10.86515625 -9.6396875 10.8084375 -10.75 10.75 C-11.81734375 10.70359375 -12.8846875 10.6571875 -13.984375 10.609375 C-17.55954637 9.88693104 -18.80880408 8.87030749 -21 6 C-21.0625 3.4375 -21.0625 3.4375 -20 1 C-14.41287631 -4.06333085 -6.46194124 -2.65105282 0 0 Z " fill="#4C6DB4" transform="translate(101,186)"/>
<path d="M0 0 C2.31 0 4.62 0 7 0 C7 5.28 7 10.56 7 16 C10.3 16 13.6 16 17 16 C17.33 10.72 17.66 5.44 18 0 C19.98 0 21.96 0 24 0 C23.99398628 2.75428447 23.9466151 5.4972946 23.875 8.25 C23.87886719 9.41595703 23.87886719 9.41595703 23.8828125 10.60546875 C23.80515375 12.87698707 23.6437194 14.81861423 23 17 C19.34805629 20.39372547 16.38673442 21.5563213 11.4375 21.5 C10.52871094 21.5103125 9.61992187 21.520625 8.68359375 21.53125 C5.01892693 20.80578466 3.47535563 19.81648237 1 17 C0.26405274 14.08435993 0.20986484 11.24688832 0.1875 8.25 C0.16236328 7.45722656 0.13722656 6.66445312 0.11132812 5.84765625 C0.0526327 3.89896805 0.0234102 1.94943141 0 0 Z " fill="#4F70B6" transform="translate(269,184)"/>
<path d="M0 0 C1.134375 0.495 2.26875 0.99 3.4375 1.5 C2.7775 2.82 2.1175 4.14 1.4375 5.5 C0.89222656 5.17773438 0.34695312 4.85546875 -0.21484375 4.5234375 C-2.98986206 3.31369574 -5.10485631 3.16609039 -8.125 3.125 C-9.07503906 3.09664062 -10.02507812 3.06828125 -11.00390625 3.0390625 C-13.68716892 3.27050802 -13.68716892 3.27050802 -15.4140625 5.359375 C-16.79870403 7.48266049 -16.79870403 7.48266049 -16.375 10.125 C-15.70573449 12.65020365 -15.70573449 12.65020365 -13.5625 14.5 C-8.35028188 15.12731121 -3.26580431 15.00842897 1.4375 12.5 C2.0975 13.82 2.7575 15.14 3.4375 16.5 C-2.84146186 19.23991063 -8.90501711 21.22663339 -15.6171875 18.73828125 C-18.19820726 17.38351362 -20.22094403 15.94550779 -22 13.625 C-22.78392771 10.6634953 -22.99915399 8.55657791 -22.5625 5.5 C-16.33900436 -2.10649467 -9.04300287 -3.3891183 0 0 Z " fill="#5171B6" transform="translate(235.5625,185.5)"/>
<path d="M0 0 C2.4375 1.625 2.4375 1.625 4 4 C3.9375 7.625 3.9375 7.625 3 11 C-1.01012085 13.6734139 -4.28884101 13.69178729 -9 13 C-11.125 11.4375 -11.125 11.4375 -12 9 C-12 5.4375 -12 5.4375 -11 2 C-7.35599888 -1.33165817 -4.62469785 -1.4759674 0 0 Z " fill="#F7F8FB" transform="translate(144,188)"/>
<path d="M0 0 C2.64 0 5.28 0 8 0 C8.66 1.65 9.32 3.3 10 5 C11.32 5 12.64 5 14 5 C14.66 3.35 15.32 1.7 16 0 C18.97 0 21.94 0 25 0 C24.071875 1.0725 23.14375 2.145 22.1875 3.25 C21.36765625 4.22066406 21.36765625 4.22066406 20.53125 5.2109375 C19.4560821 6.46712857 18.33670638 7.68616582 17.1875 8.875 C15.25784997 12.32805794 15.24151456 16.10245465 15 20 C13.02 20 11.04 20 9 20 C9.185625 18.906875 9.37125 17.81375 9.5625 16.6875 C9.65677715 10.8423166 5.65817308 7.36187011 1.96875 3.22265625 C0 1 0 1 0 0 Z " fill="#5071B6" transform="translate(182,184)"/>
<path d="M0 0 C7.26 0 14.52 0 22 0 C22 1.32 22 2.64 22 4 C19.03 4 16.06 4 13 4 C13.33 9.61 13.66 15.22 14 21 C11.69 21 9.38 21 7 21 C7.33 15.39 7.66 9.78 8 4 C5.36 4 2.72 4 0 4 C0 2.68 0 1.36 0 0 Z " fill="#5373B7" transform="translate(103,184)"/>
<path d="M0 0 C2.31 0 4.62 0 7 0 C6.67 5.61 6.34 11.22 6 17 C11.28 16.67 16.56 16.34 22 16 C22 17.65 22 19.3 22 21 C15.07 20.67 8.14 20.34 1 20 C0.67 13.4 0.34 6.8 0 0 Z " fill="#486AB3" transform="translate(245,184)"/>
<path d="M0 0 C2.31 0 4.62 0 7 0 C6.67 6.6 6.34 13.2 6 20 C4.35 20 2.7 20 1 20 C0.67 13.4 0.34 6.8 0 0 Z " fill="#4A6CB4" transform="translate(69,184)"/>
<path d="M0 0 C3.96 0 7.92 0 12 0 C12.33 1.32 12.66 2.64 13 4 C12 5 12 5 9.27734375 5.09765625 C7.62412109 5.08025391 7.62412109 5.08025391 5.9375 5.0625 C4.83277344 5.05347656 3.72804688 5.04445312 2.58984375 5.03515625 C1.30787109 5.01775391 1.30787109 5.01775391 0 5 C0 3.35 0 1.7 0 0 Z " fill="#F6F8FB" transform="translate(303,196)"/>
<path d="M0 0 C3.63 0 7.26 0 11 0 C11.33 1.32 11.66 2.64 12 4 C11 5 11 5 8.49609375 5.09765625 C6.98208984 5.08025391 6.98208984 5.08025391 5.4375 5.0625 C4.42558594 5.05347656 3.41367188 5.04445312 2.37109375 5.03515625 C1.58863281 5.02355469 0.80617187 5.01195312 0 5 C0 3.35 0 1.7 0 0 Z " fill="#FAFBFC" transform="translate(163,188)"/>
<path d="M0 0 C3.63 0 7.26 0 11 0 C11.33 1.32 11.66 2.64 12 4 C8.04 4 4.08 4 0 4 C0 2.68 0 1.36 0 0 Z " fill="#FAFBFD" transform="translate(303,188)"/>
<path d="M0 0 C2.31 0 4.62 0 7 0 C6.67 6.6 6.34 13.2 6 20 C5.34 19.67 4.68 19.34 4 19 C4 13.39 4 7.78 4 2 C2.68 1.34 1.36 0.68 0 0 Z " fill="#5675B8" transform="translate(58,184)"/>
</svg>
